<svg xmlns="http://www.w3.org/2000/svg" xmlns:xlink="http://www.w3.org/1999/xlink" width="2000" zoomAndPan="magnify" viewBox="0 0 1500 1499.999933" height="2000" preserveAspectRatio="xMidYMid meet" version="1.0"><defs><g/><clipPath id="66470eebc4"><rect x="0" width="1302" y="0" height="377"/></clipPath><clipPath id="4452e550c8"><rect x="0" width="459" y="0" height="58"/></clipPath></defs><g transform="matrix(1, 0, 0, 1, 96, 521)"><g clip-path="url(#66470eebc4)"><g fill="#ffffff" fill-opacity="0.2588"><g transform="translate(12.657187, 272.803726)"><g><path d="M 198.015625 -2.765625 L 200.234375 -2.765625 L 200.234375 0 L 138.015625 0 L 138.015625 -2.765625 L 140.5 -2.765625 C 144.375 -2.765625 147.273438 -4.007812 149.203125 -6.5 C 151.140625 -8.988281 152.109375 -11.335938 152.109375 -13.546875 C 152.109375 -15.765625 151.738281 -17.976562 151 -20.1875 L 133.3125 -67.203125 L 58.640625 -67.203125 L 40.109375 -19.90625 C 39.367188 -17.695312 39 -15.53125 39 -13.40625 C 39 -11.289062 39.96875 -8.988281 41.90625 -6.5 C 43.84375 -4.007812 46.742188 -2.765625 50.609375 -2.765625 L 53.109375 -2.765625 L 53.109375 0 L -2.484375 0 L -2.484375 -2.765625 L 0 -2.765625 C 4.613281 -2.765625 9.128906 -4.238281 13.546875 -7.1875 C 17.972656 -10.132812 21.570312 -14.46875 24.34375 -20.1875 L 86.84375 -168.984375 C 93.664062 -183.910156 97.078125 -193.40625 97.078125 -197.46875 L 99.5625 -197.46875 L 173.6875 -20.1875 C 176.269531 -14.46875 179.769531 -10.132812 184.1875 -7.1875 C 188.613281 -4.238281 193.222656 -2.765625 198.015625 -2.765625 Z M 61.953125 -75.5 L 129.984375 -75.5 L 96.796875 -164.28125 Z M 61.953125 -75.5 "/></g></g></g><g fill="#ffffff" fill-opacity="0.2588"><g transform="translate(209.478899, 272.803726)"><g><path d="M 203.265625 -190.828125 L 198.84375 -190.828125 C 194.976562 -190.828125 191.613281 -189.582031 188.75 -187.09375 C 185.894531 -184.601562 184.375 -181.515625 184.1875 -177.828125 L 184.1875 -68.3125 C 184.1875 -46.738281 177.363281 -29.3125 163.71875 -16.03125 C 150.082031 -2.757812 131.921875 3.875 109.234375 3.875 C 86.554688 3.875 68.164062 -2.710938 54.0625 -15.890625 C 39.957031 -29.078125 32.90625 -46.457031 32.90625 -68.03125 L 32.90625 -177 C 32.90625 -182.53125 30.507812 -186.585938 25.71875 -189.171875 C 23.507812 -190.273438 21.019531 -190.828125 18.25 -190.828125 L 13.828125 -190.828125 L 13.828125 -193.59375 L 69.96875 -193.59375 L 69.96875 -190.828125 L 65.546875 -190.828125 C 61.484375 -190.828125 58.066406 -189.582031 55.296875 -187.09375 C 52.535156 -184.601562 51.066406 -181.421875 50.890625 -177.546875 L 50.890625 -71.90625 C 50.890625 -51.8125 56.28125 -35.585938 67.0625 -23.234375 C 77.851562 -10.878906 92.28125 -4.703125 110.34375 -4.703125 C 128.414062 -4.703125 143.070312 -10.554688 154.3125 -22.265625 C 165.5625 -33.972656 171.1875 -49.320312 171.1875 -68.3125 L 171.1875 -177.546875 C 171.007812 -181.421875 169.535156 -184.601562 166.765625 -187.09375 C 164.003906 -189.582031 160.59375 -190.828125 156.53125 -190.828125 L 152.109375 -190.828125 L 152.109375 -193.59375 L 203.265625 -193.59375 Z M 203.265625 -190.828125 "/></g></g></g><g fill="#ffffff" fill-opacity="0.2588"><g transform="translate(426.480414, 272.803726)"><g><path d="M 73.5625 -185.015625 L 55.859375 -185.015625 L 55.859375 -20.1875 C 55.859375 -15.394531 57.5625 -11.289062 60.96875 -7.875 C 64.382812 -4.46875 68.582031 -2.765625 73.5625 -2.765625 L 76.890625 -2.765625 L 77.15625 0 L 16.59375 0 L 16.59375 -2.765625 L 20.1875 -2.765625 C 24.976562 -2.765625 29.078125 -4.421875 32.484375 -7.734375 C 35.898438 -11.054688 37.703125 -15.113281 37.890625 -19.90625 L 37.890625 -173.40625 C 37.703125 -178.195312 35.898438 -182.296875 32.484375 -185.703125 C 29.078125 -189.117188 24.976562 -190.828125 20.1875 -190.828125 L 16.59375 -190.828125 L 16.59375 -193.59375 L 91.265625 -193.59375 C 108.046875 -193.59375 121.226562 -188.9375 130.8125 -179.625 C 140.394531 -170.3125 145.1875 -158.234375 145.1875 -143.390625 C 145.1875 -128.554688 140.625 -115.742188 131.5 -104.953125 C 122.375 -94.171875 111.265625 -88.78125 98.171875 -88.78125 C 100.941406 -87.488281 104.21875 -84.953125 108 -81.171875 C 111.78125 -77.390625 115.144531 -73.472656 118.09375 -69.421875 C 133.945312 -46.742188 144.269531 -32.773438 149.0625 -27.515625 C 153.851562 -22.265625 157.265625 -18.671875 159.296875 -16.734375 C 161.328125 -14.796875 163.539062 -12.90625 165.9375 -11.0625 C 168.332031 -9.21875 170.726562 -7.742188 173.125 -6.640625 C 178.46875 -4.054688 184.1875 -2.765625 190.28125 -2.765625 L 190.28125 0 L 175.0625 0 C 167.132812 0 159.757812 -1.425781 152.9375 -4.28125 C 146.113281 -7.144531 140.992188 -10.097656 137.578125 -13.140625 C 134.171875 -16.179688 131.222656 -19.128906 128.734375 -21.984375 C 126.242188 -24.835938 119.375 -34.378906 108.125 -50.609375 C 96.882812 -66.835938 90.34375 -76.101562 88.5 -78.40625 C 86.65625 -80.707031 84.71875 -82.96875 82.6875 -85.1875 C 76.789062 -91.445312 70.890625 -94.578125 64.984375 -94.578125 L 64.984375 -97.34375 C 66.460938 -97.164062 68.398438 -97.078125 70.796875 -97.078125 C 73.191406 -97.078125 76.144531 -97.164062 79.65625 -97.34375 C 102.507812 -97.894531 116.890625 -107.484375 122.796875 -126.109375 C 123.898438 -129.796875 124.453125 -133.253906 124.453125 -136.484375 C 124.453125 -139.710938 124.453125 -141.785156 124.453125 -142.703125 C 124.085938 -155.054688 120.859375 -165.007812 114.765625 -172.5625 C 108.679688 -180.125 100.476562 -184.1875 90.15625 -184.75 C 85.726562 -184.925781 80.195312 -185.015625 73.5625 -185.015625 Z M 73.5625 -185.015625 "/></g></g></g><g fill="#ffffff" fill-opacity="0.2588"><g transform="translate(613.626887, 272.803726)"><g><path d="M 46.875 -169.671875 C 65.21875 -188.203125 89.140625 -197.46875 118.640625 -197.46875 C 148.140625 -197.46875 172.109375 -188.203125 190.546875 -169.671875 C 208.984375 -151.140625 218.203125 -126.847656 218.203125 -96.796875 C 218.203125 -66.742188 208.984375 -42.453125 190.546875 -23.921875 C 172.109375 -5.390625 148.140625 3.875 118.640625 3.875 C 89.140625 3.875 65.21875 -5.390625 46.875 -23.921875 C 28.53125 -42.453125 19.359375 -66.742188 19.359375 -96.796875 C 19.359375 -126.847656 28.53125 -151.140625 46.875 -169.671875 Z M 62.078125 -29.859375 C 76.367188 -12.898438 95.269531 -4.421875 118.78125 -4.421875 C 142.289062 -4.421875 161.1875 -12.898438 175.46875 -29.859375 C 189.757812 -46.828125 196.90625 -69.140625 196.90625 -96.796875 C 196.90625 -115.046875 193.675781 -131.175781 187.21875 -145.1875 C 180.769531 -159.207031 171.597656 -170.039062 159.703125 -177.6875 C 147.816406 -185.34375 134.128906 -189.171875 118.640625 -189.171875 C 95.222656 -189.171875 76.367188 -180.6875 62.078125 -163.71875 C 47.796875 -146.757812 40.65625 -124.453125 40.65625 -96.796875 C 40.65625 -69.140625 47.796875 -46.828125 62.078125 -29.859375 Z M 62.078125 -29.859375 "/></g></g></g><g fill="#ffffff" fill-opacity="0.2588"><g transform="translate(845.279439, 272.803726)"><g><path d="M 73.5625 -185.015625 L 55.859375 -185.015625 L 55.859375 -20.1875 C 55.859375 -15.394531 57.5625 -11.289062 60.96875 -7.875 C 64.382812 -4.46875 68.582031 -2.765625 73.5625 -2.765625 L 76.890625 -2.765625 L 77.15625 0 L 16.59375 0 L 16.59375 -2.765625 L 20.1875 -2.765625 C 24.976562 -2.765625 29.078125 -4.421875 32.484375 -7.734375 C 35.898438 -11.054688 37.703125 -15.113281 37.890625 -19.90625 L 37.890625 -173.40625 C 37.703125 -178.195312 35.898438 -182.296875 32.484375 -185.703125 C 29.078125 -189.117188 24.976562 -190.828125 20.1875 -190.828125 L 16.59375 -190.828125 L 16.59375 -193.59375 L 91.265625 -193.59375 C 108.046875 -193.59375 121.226562 -188.9375 130.8125 -179.625 C 140.394531 -170.3125 145.1875 -158.234375 145.1875 -143.390625 C 145.1875 -128.554688 140.625 -115.742188 131.5 -104.953125 C 122.375 -94.171875 111.265625 -88.78125 98.171875 -88.78125 C 100.941406 -87.488281 104.21875 -84.953125 108 -81.171875 C 111.78125 -77.390625 115.144531 -73.472656 118.09375 -69.421875 C 133.945312 -46.742188 144.269531 -32.773438 149.0625 -27.515625 C 153.851562 -22.265625 157.265625 -18.671875 159.296875 -16.734375 C 161.328125 -14.796875 163.539062 -12.90625 165.9375 -11.0625 C 168.332031 -9.21875 170.726562 -7.742188 173.125 -6.640625 C 178.46875 -4.054688 184.1875 -2.765625 190.28125 -2.765625 L 190.28125 0 L 175.0625 0 C 167.132812 0 159.757812 -1.425781 152.9375 -4.28125 C 146.113281 -7.144531 140.992188 -10.097656 137.578125 -13.140625 C 134.171875 -16.179688 131.222656 -19.128906 128.734375 -21.984375 C 126.242188 -24.835938 119.375 -34.378906 108.125 -50.609375 C 96.882812 -66.835938 90.34375 -76.101562 88.5 -78.40625 C 86.65625 -80.707031 84.71875 -82.96875 82.6875 -85.1875 C 76.789062 -91.445312 70.890625 -94.578125 64.984375 -94.578125 L 64.984375 -97.34375 C 66.460938 -97.164062 68.398438 -97.078125 70.796875 -97.078125 C 73.191406 -97.078125 76.144531 -97.164062 79.65625 -97.34375 C 102.507812 -97.894531 116.890625 -107.484375 122.796875 -126.109375 C 123.898438 -129.796875 124.453125 -133.253906 124.453125 -136.484375 C 124.453125 -139.710938 124.453125 -141.785156 124.453125 -142.703125 C 124.085938 -155.054688 120.859375 -165.007812 114.765625 -172.5625 C 108.679688 -180.125 100.476562 -184.1875 90.15625 -184.75 C 85.726562 -184.925781 80.195312 -185.015625 73.5625 -185.015625 Z M 73.5625 -185.015625 "/></g></g></g><g fill="#ffffff" fill-opacity="0.2588"><g transform="translate(1032.425911, 272.803726)"><g><path d="M 198.015625 -2.765625 L 200.234375 -2.765625 L 200.234375 0 L 138.015625 0 L 138.015625 -2.765625 L 140.5 -2.765625 C 144.375 -2.765625 147.273438 -4.007812 149.203125 -6.5 C 151.140625 -8.988281 152.109375 -11.335938 152.109375 -13.546875 C 152.109375 -15.765625 151.738281 -17.976562 151 -20.1875 L 133.3125 -67.203125 L 58.640625 -67.203125 L 40.109375 -19.90625 C 39.367188 -17.695312 39 -15.53125 39 -13.40625 C 39 -11.289062 39.96875 -8.988281 41.90625 -6.5 C 43.84375 -4.007812 46.742188 -2.765625 50.609375 -2.765625 L 53.109375 -2.765625 L 53.109375 0 L -2.484375 0 L -2.484375 -2.765625 L 0 -2.765625 C 4.613281 -2.765625 9.128906 -4.238281 13.546875 -7.1875 C 17.972656 -10.132812 21.570312 -14.46875 24.34375 -20.1875 L 86.84375 -168.984375 C 93.664062 -183.910156 97.078125 -193.40625 97.078125 -197.46875 L 99.5625 -197.46875 L 173.6875 -20.1875 C 176.269531 -14.46875 179.769531 -10.132812 184.1875 -7.1875 C 188.613281 -4.238281 193.222656 -2.765625 198.015625 -2.765625 Z M 61.953125 -75.5 L 129.984375 -75.5 L 96.796875 -164.28125 Z M 61.953125 -75.5 "/></g></g></g><g fill="#ffffff" fill-opacity="0.2588"><g transform="translate(1229.325298, 272.803726)"><g/></g></g><g fill="#303030" fill-opacity="1"><g transform="translate(10.945663, 271.092202)"><g><path d="M 198.015625 -2.765625 L 200.234375 -2.765625 L 200.234375 0 L 138.015625 0 L 138.015625 -2.765625 L 140.5 -2.765625 C 144.375 -2.765625 147.273438 -4.007812 149.203125 -6.5 C 151.140625 -8.988281 152.109375 -11.335938 152.109375 -13.546875 C 152.109375 -15.765625 151.738281 -17.976562 151 -20.1875 L 133.3125 -67.203125 L 58.640625 -67.203125 L 40.109375 -19.90625 C 39.367188 -17.695312 39 -15.53125 39 -13.40625 C 39 -11.289062 39.96875 -8.988281 41.90625 -6.5 C 43.84375 -4.007812 46.742188 -2.765625 50.609375 -2.765625 L 53.109375 -2.765625 L 53.109375 0 L -2.484375 0 L -2.484375 -2.765625 L 0 -2.765625 C 4.613281 -2.765625 9.128906 -4.238281 13.546875 -7.1875 C 17.972656 -10.132812 21.570312 -14.46875 24.34375 -20.1875 L 86.84375 -168.984375 C 93.664062 -183.910156 97.078125 -193.40625 97.078125 -197.46875 L 99.5625 -197.46875 L 173.6875 -20.1875 C 176.269531 -14.46875 179.769531 -10.132812 184.1875 -7.1875 C 188.613281 -4.238281 193.222656 -2.765625 198.015625 -2.765625 Z M 61.953125 -75.5 L 129.984375 -75.5 L 96.796875 -164.28125 Z M 61.953125 -75.5 "/></g></g></g><g fill="#303030" fill-opacity="1"><g transform="translate(207.767376, 271.092202)"><g><path d="M 203.265625 -190.828125 L 198.84375 -190.828125 C 194.976562 -190.828125 191.613281 -189.582031 188.75 -187.09375 C 185.894531 -184.601562 184.375 -181.515625 184.1875 -177.828125 L 184.1875 -68.3125 C 184.1875 -46.738281 177.363281 -29.3125 163.71875 -16.03125 C 150.082031 -2.757812 131.921875 3.875 109.234375 3.875 C 86.554688 3.875 68.164062 -2.710938 54.0625 -15.890625 C 39.957031 -29.078125 32.90625 -46.457031 32.90625 -68.03125 L 32.90625 -177 C 32.90625 -182.53125 30.507812 -186.585938 25.71875 -189.171875 C 23.507812 -190.273438 21.019531 -190.828125 18.25 -190.828125 L 13.828125 -190.828125 L 13.828125 -193.59375 L 69.96875 -193.59375 L 69.96875 -190.828125 L 65.546875 -190.828125 C 61.484375 -190.828125 58.066406 -189.582031 55.296875 -187.09375 C 52.535156 -184.601562 51.066406 -181.421875 50.890625 -177.546875 L 50.890625 -71.90625 C 50.890625 -51.8125 56.28125 -35.585938 67.0625 -23.234375 C 77.851562 -10.878906 92.28125 -4.703125 110.34375 -4.703125 C 128.414062 -4.703125 143.070312 -10.554688 154.3125 -22.265625 C 165.5625 -33.972656 171.1875 -49.320312 171.1875 -68.3125 L 171.1875 -177.546875 C 171.007812 -181.421875 169.535156 -184.601562 166.765625 -187.09375 C 164.003906 -189.582031 160.59375 -190.828125 156.53125 -190.828125 L 152.109375 -190.828125 L 152.109375 -193.59375 L 203.265625 -193.59375 Z M 203.265625 -190.828125 "/></g></g></g><g fill="#303030" fill-opacity="1"><g transform="translate(424.768891, 271.092202)"><g><path d="M 73.5625 -185.015625 L 55.859375 -185.015625 L 55.859375 -20.1875 C 55.859375 -15.394531 57.5625 -11.289062 60.96875 -7.875 C 64.382812 -4.46875 68.582031 -2.765625 73.5625 -2.765625 L 76.890625 -2.765625 L 77.15625 0 L 16.59375 0 L 16.59375 -2.765625 L 20.1875 -2.765625 C 24.976562 -2.765625 29.078125 -4.421875 32.484375 -7.734375 C 35.898438 -11.054688 37.703125 -15.113281 37.890625 -19.90625 L 37.890625 -173.40625 C 37.703125 -178.195312 35.898438 -182.296875 32.484375 -185.703125 C 29.078125 -189.117188 24.976562 -190.828125 20.1875 -190.828125 L 16.59375 -190.828125 L 16.59375 -193.59375 L 91.265625 -193.59375 C 108.046875 -193.59375 121.226562 -188.9375 130.8125 -179.625 C 140.394531 -170.3125 145.1875 -158.234375 145.1875 -143.390625 C 145.1875 -128.554688 140.625 -115.742188 131.5 -104.953125 C 122.375 -94.171875 111.265625 -88.78125 98.171875 -88.78125 C 100.941406 -87.488281 104.21875 -84.953125 108 -81.171875 C 111.78125 -77.390625 115.144531 -73.472656 118.09375 -69.421875 C 133.945312 -46.742188 144.269531 -32.773438 149.0625 -27.515625 C 153.851562 -22.265625 157.265625 -18.671875 159.296875 -16.734375 C 161.328125 -14.796875 163.539062 -12.90625 165.9375 -11.0625 C 168.332031 -9.21875 170.726562 -7.742188 173.125 -6.640625 C 178.46875 -4.054688 184.1875 -2.765625 190.28125 -2.765625 L 190.28125 0 L 175.0625 0 C 167.132812 0 159.757812 -1.425781 152.9375 -4.28125 C 146.113281 -7.144531 140.992188 -10.097656 137.578125 -13.140625 C 134.171875 -16.179688 131.222656 -19.128906 128.734375 -21.984375 C 126.242188 -24.835938 119.375 -34.378906 108.125 -50.609375 C 96.882812 -66.835938 90.34375 -76.101562 88.5 -78.40625 C 86.65625 -80.707031 84.71875 -82.96875 82.6875 -85.1875 C 76.789062 -91.445312 70.890625 -94.578125 64.984375 -94.578125 L 64.984375 -97.34375 C 66.460938 -97.164062 68.398438 -97.078125 70.796875 -97.078125 C 73.191406 -97.078125 76.144531 -97.164062 79.65625 -97.34375 C 102.507812 -97.894531 116.890625 -107.484375 122.796875 -126.109375 C 123.898438 -129.796875 124.453125 -133.253906 124.453125 -136.484375 C 124.453125 -139.710938 124.453125 -141.785156 124.453125 -142.703125 C 124.085938 -155.054688 120.859375 -165.007812 114.765625 -172.5625 C 108.679688 -180.125 100.476562 -184.1875 90.15625 -184.75 C 85.726562 -184.925781 80.195312 -185.015625 73.5625 -185.015625 Z M 73.5625 -185.015625 "/></g></g></g><g fill="#303030" fill-opacity="1"><g transform="translate(611.915364, 271.092202)"><g><path d="M 46.875 -169.671875 C 65.21875 -188.203125 89.140625 -197.46875 118.640625 -197.46875 C 148.140625 -197.46875 172.109375 -188.203125 190.546875 -169.671875 C 208.984375 -151.140625 218.203125 -126.847656 218.203125 -96.796875 C 218.203125 -66.742188 208.984375 -42.453125 190.546875 -23.921875 C 172.109375 -5.390625 148.140625 3.875 118.640625 3.875 C 89.140625 3.875 65.21875 -5.390625 46.875 -23.921875 C 28.53125 -42.453125 19.359375 -66.742188 19.359375 -96.796875 C 19.359375 -126.847656 28.53125 -151.140625 46.875 -169.671875 Z M 62.078125 -29.859375 C 76.367188 -12.898438 95.269531 -4.421875 118.78125 -4.421875 C 142.289062 -4.421875 161.1875 -12.898438 175.46875 -29.859375 C 189.757812 -46.828125 196.90625 -69.140625 196.90625 -96.796875 C 196.90625 -115.046875 193.675781 -131.175781 187.21875 -145.1875 C 180.769531 -159.207031 171.597656 -170.039062 159.703125 -177.6875 C 147.816406 -185.34375 134.128906 -189.171875 118.640625 -189.171875 C 95.222656 -189.171875 76.367188 -180.6875 62.078125 -163.71875 C 47.796875 -146.757812 40.65625 -124.453125 40.65625 -96.796875 C 40.65625 -69.140625 47.796875 -46.828125 62.078125 -29.859375 Z M 62.078125 -29.859375 "/></g></g></g><g fill="#303030" fill-opacity="1"><g transform="translate(843.567916, 271.092202)"><g><path d="M 73.5625 -185.015625 L 55.859375 -185.015625 L 55.859375 -20.1875 C 55.859375 -15.394531 57.5625 -11.289062 60.96875 -7.875 C 64.382812 -4.46875 68.582031 -2.765625 73.5625 -2.765625 L 76.890625 -2.765625 L 77.15625 0 L 16.59375 0 L 16.59375 -2.765625 L 20.1875 -2.765625 C 24.976562 -2.765625 29.078125 -4.421875 32.484375 -7.734375 C 35.898438 -11.054688 37.703125 -15.113281 37.890625 -19.90625 L 37.890625 -173.40625 C 37.703125 -178.195312 35.898438 -182.296875 32.484375 -185.703125 C 29.078125 -189.117188 24.976562 -190.828125 20.1875 -190.828125 L 16.59375 -190.828125 L 16.59375 -193.59375 L 91.265625 -193.59375 C 108.046875 -193.59375 121.226562 -188.9375 130.8125 -179.625 C 140.394531 -170.3125 145.1875 -158.234375 145.1875 -143.390625 C 145.1875 -128.554688 140.625 -115.742188 131.5 -104.953125 C 122.375 -94.171875 111.265625 -88.78125 98.171875 -88.78125 C 100.941406 -87.488281 104.21875 -84.953125 108 -81.171875 C 111.78125 -77.390625 115.144531 -73.472656 118.09375 -69.421875 C 133.945312 -46.742188 144.269531 -32.773438 149.0625 -27.515625 C 153.851562 -22.265625 157.265625 -18.671875 159.296875 -16.734375 C 161.328125 -14.796875 163.539062 -12.90625 165.9375 -11.0625 C 168.332031 -9.21875 170.726562 -7.742188 173.125 -6.640625 C 178.46875 -4.054688 184.1875 -2.765625 190.28125 -2.765625 L 190.28125 0 L 175.0625 0 C 167.132812 0 159.757812 -1.425781 152.9375 -4.28125 C 146.113281 -7.144531 140.992188 -10.097656 137.578125 -13.140625 C 134.171875 -16.179688 131.222656 -19.128906 128.734375 -21.984375 C 126.242188 -24.835938 119.375 -34.378906 108.125 -50.609375 C 96.882812 -66.835938 90.34375 -76.101562 88.5 -78.40625 C 86.65625 -80.707031 84.71875 -82.96875 82.6875 -85.1875 C 76.789062 -91.445312 70.890625 -94.578125 64.984375 -94.578125 L 64.984375 -97.34375 C 66.460938 -97.164062 68.398438 -97.078125 70.796875 -97.078125 C 73.191406 -97.078125 76.144531 -97.164062 79.65625 -97.34375 C 102.507812 -97.894531 116.890625 -107.484375 122.796875 -126.109375 C 123.898438 -129.796875 124.453125 -133.253906 124.453125 -136.484375 C 124.453125 -139.710938 124.453125 -141.785156 124.453125 -142.703125 C 124.085938 -155.054688 120.859375 -165.007812 114.765625 -172.5625 C 108.679688 -180.125 100.476562 -184.1875 90.15625 -184.75 C 85.726562 -184.925781 80.195312 -185.015625 73.5625 -185.015625 Z M 73.5625 -185.015625 "/></g></g></g><g fill="#303030" fill-opacity="1"><g transform="translate(1030.714388, 271.092202)"><g><path d="M 198.015625 -2.765625 L 200.234375 -2.765625 L 200.234375 0 L 138.015625 0 L 138.015625 -2.765625 L 140.5 -2.765625 C 144.375 -2.765625 147.273438 -4.007812 149.203125 -6.5 C 151.140625 -8.988281 152.109375 -11.335938 152.109375 -13.546875 C 152.109375 -15.765625 151.738281 -17.976562 151 -20.1875 L 133.3125 -67.203125 L 58.640625 -67.203125 L 40.109375 -19.90625 C 39.367188 -17.695312 39 -15.53125 39 -13.40625 C 39 -11.289062 39.96875 -8.988281 41.90625 -6.5 C 43.84375 -4.007812 46.742188 -2.765625 50.609375 -2.765625 L 53.109375 -2.765625 L 53.109375 0 L -2.484375 0 L -2.484375 -2.765625 L 0 -2.765625 C 4.613281 -2.765625 9.128906 -4.238281 13.546875 -7.1875 C 17.972656 -10.132812 21.570312 -14.46875 24.34375 -20.1875 L 86.84375 -168.984375 C 93.664062 -183.910156 97.078125 -193.40625 97.078125 -197.46875 L 99.5625 -197.46875 L 173.6875 -20.1875 C 176.269531 -14.46875 179.769531 -10.132812 184.1875 -7.1875 C 188.613281 -4.238281 193.222656 -2.765625 198.015625 -2.765625 Z M 61.953125 -75.5 L 129.984375 -75.5 L 96.796875 -164.28125 Z M 61.953125 -75.5 "/></g></g></g><g fill="#303030" fill-opacity="1"><g transform="translate(1227.613775, 271.092202)"><g/></g></g></g></g><g transform="matrix(1, 0, 0, 1, 561, 821)"><g clip-path="url(#4452e550c8)"><g fill="#303030" fill-opacity="1"><g transform="translate(4.049841, 42.448084)"><g><path d="M 4.859375 0 L 4.859375 -32.0625 L 8.515625 -32.0625 L 8.515625 -3.390625 L 22.578125 -3.390625 L 22.578125 0 Z M 4.859375 0 "/></g></g></g><g fill="#303030" fill-opacity="1"><g transform="translate(37.162304, 42.448084)"><g/></g></g><g fill="#303030" fill-opacity="1"><g transform="translate(57.725864, 42.448084)"><g><path d="M 4.859375 0 L 4.859375 -32.0625 L 8.515625 -32.0625 L 8.515625 0 Z M 4.859375 0 "/></g></g></g><g fill="#303030" fill-opacity="1"><g transform="translate(80.533602, 42.448084)"><g/></g></g><g fill="#303030" fill-opacity="1"><g transform="translate(101.097162, 42.448084)"><g><path d="M 27.890625 -5.953125 L 27.890625 -32.0625 L 31.515625 -32.0625 L 31.515625 0 L 27.75 0 L 8.515625 -26.109375 L 8.515625 0 L 4.859375 0 L 4.859375 -32.0625 L 8.65625 -32.0625 Z M 27.890625 -5.953125 "/></g></g></g><g fill="#303030" fill-opacity="1"><g transform="translate(146.941739, 42.448084)"><g/></g></g><g fill="#303030" fill-opacity="1"><g transform="translate(167.505299, 42.448084)"><g><path d="M 27.203125 -15.65625 L 30.453125 -15.65625 L 30.453125 -3.9375 C 28.867188 -2.625 27.019531 -1.59375 24.90625 -0.84375 C 22.800781 -0.09375 20.679688 0.28125 18.546875 0.28125 C 15.492188 0.28125 12.691406 -0.441406 10.140625 -1.890625 C 7.585938 -3.347656 5.5625 -5.328125 4.0625 -7.828125 C 2.570312 -10.335938 1.828125 -13.085938 1.828125 -16.078125 C 1.828125 -19.035156 2.570312 -21.757812 4.0625 -24.25 C 5.5625 -26.738281 7.609375 -28.707031 10.203125 -30.15625 C 12.804688 -31.601562 15.648438 -32.328125 18.734375 -32.328125 C 20.929688 -32.328125 23.054688 -31.9375 25.109375 -31.15625 C 27.171875 -30.382812 28.984375 -29.296875 30.546875 -27.890625 L 28.4375 -25.234375 C 27.125 -26.421875 25.617188 -27.34375 23.921875 -28 C 22.234375 -28.65625 20.503906 -28.984375 18.734375 -28.984375 C 16.316406 -28.984375 14.097656 -28.40625 12.078125 -27.25 C 10.066406 -26.09375 8.472656 -24.523438 7.296875 -22.546875 C 6.128906 -20.578125 5.546875 -18.421875 5.546875 -16.078125 C 5.546875 -13.691406 6.140625 -11.503906 7.328125 -9.515625 C 8.515625 -7.535156 10.113281 -5.960938 12.125 -4.796875 C 14.144531 -3.640625 16.363281 -3.0625 18.78125 -3.0625 C 20.207031 -3.0625 21.65625 -3.296875 23.125 -3.765625 C 24.59375 -4.242188 25.953125 -4.925781 27.203125 -5.8125 Z M 27.203125 -15.65625 "/></g></g></g><g fill="#303030" fill-opacity="1"><g transform="translate(211.426286, 42.448084)"><g/></g></g><g fill="#303030" fill-opacity="1"><g transform="translate(231.989845, 42.448084)"><g><path d="M 4.859375 0 L 4.859375 -32.0625 L 26.609375 -32.0625 L 26.609375 -28.671875 L 8.515625 -28.671875 L 8.515625 -17.90625 L 24.6875 -17.90625 L 24.6875 -14.5625 L 8.515625 -14.5625 L 8.515625 -3.390625 L 27.203125 -3.390625 L 27.203125 0 Z M 4.859375 0 "/></g></g></g><g fill="#303030" fill-opacity="1"><g transform="translate(271.239382, 42.448084)"><g/></g></g><g fill="#303030" fill-opacity="1"><g transform="translate(291.802942, 42.448084)"><g><path d="M 30 0 L 25.828125 0 L 19.09375 -10.265625 C 18.238281 -10.203125 17.550781 -10.171875 17.03125 -10.171875 L 8.515625 -10.171875 L 8.515625 0 L 4.859375 0 L 4.859375 -32.0625 L 17.03125 -32.0625 C 21.03125 -32.0625 24.132812 -31.117188 26.34375 -29.234375 C 28.5625 -27.359375 29.671875 -24.710938 29.671875 -21.296875 C 29.671875 -18.671875 29.046875 -16.472656 27.796875 -14.703125 C 26.546875 -12.929688 24.757812 -11.679688 22.4375 -10.953125 Z M 8.515625 -13.5625 L 17.03125 -13.5625 C 19.96875 -13.5625 22.222656 -14.207031 23.796875 -15.5 C 25.367188 -16.800781 26.15625 -18.703125 26.15625 -21.203125 C 26.15625 -23.648438 25.367188 -25.503906 23.796875 -26.765625 C 22.222656 -28.035156 19.96875 -28.671875 17.03125 -28.671875 L 8.515625 -28.671875 Z M 8.515625 -13.5625 "/></g></g></g><g fill="#303030" fill-opacity="1"><g transform="translate(334.349969, 42.448084)"><g/></g></g><g fill="#303030" fill-opacity="1"><g transform="translate(354.913529, 42.448084)"><g><path d="M 4.859375 0 L 4.859375 -32.0625 L 8.515625 -32.0625 L 8.515625 0 Z M 4.859375 0 "/></g></g></g><g fill="#303030" fill-opacity="1"><g transform="translate(377.721268, 42.448084)"><g/></g></g><g fill="#303030" fill-opacity="1"><g transform="translate(398.284828, 42.448084)"><g><path d="M 4.859375 0 L 4.859375 -32.0625 L 26.609375 -32.0625 L 26.609375 -28.671875 L 8.515625 -28.671875 L 8.515625 -17.90625 L 24.6875 -17.90625 L 24.6875 -14.5625 L 8.515625 -14.5625 L 8.515625 -3.390625 L 27.203125 -3.390625 L 27.203125 0 Z M 4.859375 0 "/></g></g></g><g fill="#303030" fill-opacity="1"><g transform="translate(437.585805, 42.448084)"><g/></g></g></g></g></svg>